<?xml version="1.0" standalone="no"?>
<!DOCTYPE svg PUBLIC "-//W3C//DTD SVG 1.1//EN" "http://www.w3.org/Graphics/SVG/1.1/DTD/svg11.dtd" >
<svg xmlns="http://www.w3.org/2000/svg">
<metadata>
Created by FontForge 20120731 at Thu Mar 17 11:11:35 2016
 By Ads
</metadata>
<defs>
<font id="iconfont" horiz-adv-x="1024" >
  <font-face 
    font-family="iconfont"
    font-weight="500"
    font-stretch="normal"
    units-per-em="1024"
    panose-1="2 0 6 3 0 0 0 0 0 0"
    ascent="896"
    descent="-128"
    x-height="792"
    bbox="0 -218 1024.02 896"
    underline-thickness="50"
    underline-position="-100"
    unicode-range="U+0078-E635"
  />
<missing-glyph horiz-adv-x="374" 
d="M34 0v682h272v-682h-272zM68 34h204v614h-204v-614z" />
    <glyph glyph-name=".notdef" horiz-adv-x="374" 
d="M34 0v682h272v-682h-272zM68 34h204v614h-204v-614z" />
    <glyph glyph-name=".null" horiz-adv-x="0" 
 />
    <glyph glyph-name="nonmarkingreturn" horiz-adv-x="341" 
 />
    <glyph glyph-name="x" unicode="x" horiz-adv-x="1001" 
d="M281 543q-27 -1 -53 -1h-83q-18 0 -36.5 -6t-32.5 -18.5t-23 -32t-9 -45.5v-76h912v41q0 16 -0.5 30t-0.5 18q0 13 -5 29t-17 29.5t-31.5 22.5t-49.5 9h-133v-97h-438v97zM955 310v-52q0 -23 0.5 -52t0.5 -58t-10.5 -47.5t-26 -30t-33 -16t-31.5 -4.5q-14 -1 -29.5 -0.5
t-29.5 0.5h-32l-45 128h-439l-44 -128h-29h-34q-20 0 -45 1q-25 0 -41 9.5t-25.5 23t-13.5 29.5t-4 30v167h911zM163 247q-12 0 -21 -8.5t-9 -21.5t9 -21.5t21 -8.5q13 0 22 8.5t9 21.5t-9 21.5t-22 8.5zM316 123q-8 -26 -14 -48q-5 -19 -10.5 -37t-7.5 -25t-3 -15t1 -14.5
t9.5 -10.5t21.5 -4h37h67h81h80h64h36q23 0 34 12t2 38q-5 13 -9.5 30.5t-9.5 34.5q-5 19 -11 39h-368zM336 498v228q0 11 2.5 23t10 21.5t20.5 15.5t34 6h188q31 0 51.5 -14.5t20.5 -52.5v-227h-327z" />
    <glyph glyph-name="uniE600" unicode="&#xe600;" 
d="M258 378l203 -202q5 -5 11 -9t12.5 -6.5t13.5 -4t14 -1.5q30 0 51 21l203 202q3 4 5.5 8t4 8t2 8.5t0 9t-2 8.5t-4 8t-5.5 8q-12 12 -29 12q-5 0 -10.5 -1.5t-10 -4t-8.5 -6.5l-155 -156v438q0 17 -12 28.5t-29 11.5t-29 -11.5t-12 -28.5v-438l-155 156q-12 12 -29 12
t-28.5 -12t-11.5 -29t11 -29zM812 651q-11 0 -20.5 -5.5t-15 -14.5t-5.5 -20t5.5 -20.5t15 -15t20.5 -5.5q36 0 62 -25.5t26 -62.5v-471q0 -37 -26 -62.5t-62 -25.5h-600q-14 0 -27.5 4.5t-24.5 12.5t-19 19t-12.5 24t-4.5 28v471q0 37 26 62.5t62 25.5q8 0 15.5 3.5t13 8.5
t9 12.5t3.5 16.5q0 16 -12 28t-29 12q-20 0 -39 -4.5t-35.5 -12.5t-31 -20t-26 -26.5t-20 -31t-13 -35.5t-4.5 -39v-471q0 -70 49.5 -119.5t119.5 -49.5h600q70 0 119.5 49.5t49.5 119.5v471q0 23 -6 45t-17 40.5t-26.5 34t-34 26.5t-40.5 17t-45 6z" />
    <glyph glyph-name="uniE601" unicode="&#xe601;" 
d="M951 -95l-152 162q95 115 95 264q0 85 -33 161.5t-88.5 132t-132 88.5t-161 33t-161 -33t-132 -88.5t-88.5 -132t-33 -161.5q0 -112 55.5 -207.5t151 -151t208.5 -55.5q90 0 171 37q12 6 16.5 18t-0.5 24t-17.5 17t-24.5 -1q-23 -10 -47 -17t-48.5 -10.5t-49.5 -3.5
q-96 0 -176.5 47t-127.5 127.5t-47 175.5q0 72 27.5 137t74.5 112t112 74.5t136.5 27.5t136.5 -27.5t112 -74.5t74.5 -112t27.5 -137q0 -68 -25 -130.5t-72 -111.5q-6 -7 -8 -15t0 -16t8 -14l2 -2l2 -1l1 -1q0 -2 1 -2l165 -177q9 -10 23 -10q13 0 22 9q6 5 8.5 13.5t1 16.5
t-7.5 15zM951 -95z" />
    <glyph glyph-name="uniE602" unicode="&#xe602;" 
d="M828 616q-42 42 -93 71.5t-107.5 44.5t-115.5 15q-90 0 -172 -33.5t-145 -97.5q-42 -42 -71.5 -92.5t-44.5 -107.5t-15 -116q0 -133 72 -244q7 -11 20 -13.5t23.5 4.5t13.5 19.5t-4 23.5q-63 95 -63 210q0 104 51.5 193t140.5 140.5t193.5 51.5t193.5 -51.5t140.5 -140.5
t51.5 -193q0 -63 -19.5 -121.5t-55 -106t-83 -83.5t-106.5 -55t-121 -19q-108 0 -200 55q-7 4 -15 4.5t-15.5 -3.5t-11.5 -12q-3 -4 -4 -9t-0.5 -9.5t2 -9t5 -8.5t7.5 -6q107 -65 232 -65q89 0 171 34t145 97.5t97 145t34 171.5q0 36 -5.5 70.5t-16.5 68t-26.5 64.5
t-36.5 59.5t-46 53.5zM494 606q-4 0 -8 -0.5t-7.5 -2t-6.5 -4t-5.5 -5t-5 -5.5t-4 -6.5t-2 -7.5t-0.5 -8v-284v-2v-2q2 -15 13 -24.5t27 -9.5v0h224q16 0 27.5 12t11.5 28t-11.5 27.5t-27.5 11.5h-185v243q0 10 -5.5 19.5t-14.5 14.5t-20 5z" />
    <glyph glyph-name="uniE603" unicode="&#xe603;" 
d="M561 684q-137 0 -241.5 -85.5t-133.5 -215.5l-43 71q0 1 -1 1q-7 12 -21 15t-26 -5t-16.5 -21.5t2.5 -25.5l1 -1l110 -184l60 38l124 78l1 1q11 8 13.5 21.5t-4.5 26.5t-21 16.5t-26 -3.5l-1 -1l-87 -55q20 111 107.5 185t202.5 74q130 0 222 -92t92 -222t-92 -222
t-222 -92q-81 0 -150 38t-113 104l-2 2v1l-1 1q-10 13 -27 13q-14 0 -24.5 -10.5t-10.5 -24.5q0 -11 6 -20q53 -80 138 -127t184 -47q159 0 271.5 112.5t112.5 271.5t-112.5 271.5t-271.5 112.5zM512 284v-71h213h2q15 0 25.5 10.5t10.5 25.5t-10.5 25.5t-25.5 10.5h-2
l-142 -1v150v2q0 15 -10.5 25.5t-25.5 10.5t-25.5 -10.5t-10.5 -25.5v-2l1 -150v0z" />
    <glyph glyph-name="uniE604" unicode="&#xe604;" 
d="M512 812q-139 0 -257 -68.5t-186.5 -186.5t-68.5 -257t68.5 -257t186.5 -186.5t257 -68.5t257 68.5t186.5 186.5t68.5 257t-68.5 257t-186.5 186.5t-257 68.5zM654 260l-243 -159q-29 -16 -49 -4.5t-20 44.5v318q0 33 20 44.5t49 -4.5l243 -159q28 -17 28 -40t-28 -40z
" />
    <glyph glyph-name="uniE605" unicode="&#xe605;" horiz-adv-x="1000" 
d="M221 282h222v-426h-426v378q-19 358 359 542l96 -145q-242 -126 -251 -349zM763 282h223v-426h-426v378q-20 358 358 542l97 -145q-252 -136 -252 -349z" />
    <glyph glyph-name="uniE606" unicode="&#xe606;" horiz-adv-x="1000" 
d="M810 350h-222v426h426v-378q19 -358 -359 -542l-96 145q242 126 251 349zM268 350h-223v426h426v-378q20 -358 -358 -542l-97 145q252 136 252 349z" />
    <glyph glyph-name="uniE607" unicode="&#xe607;" 
d="M234 125l278 278l278 -278l46 47l-324 324l-324 -324z" />
    <glyph glyph-name="uniE608" unicode="&#xe608;" 
d="M512 234l-4 2l-111 122l-1 5q2 3 5 3h222q3 0 4 -3q1 -1 0.5 -2.5t-1.5 -2.5l-111 -122q-1 -2 -3 -2zM623 361l-111 -122l-111 122h222zM623 371h-222q-6 0 -9 -6q-2 -6 1 -11l111 -122l8 -3q5 1 8 3l111 122q4 5 1 11t-9 6z" />
    <glyph glyph-name="uniE609" unicode="&#xe609;" 
d="M761 97l-203 203l203 203l-46 46l-203 -203l-203 203l-46 -46l203 -203l-203 -203l46 -46l203 203l203 -203z" />
    <glyph glyph-name="uniE60A" unicode="&#xe60a;" 
d="M960 588h-896q-26 0 -45 -19t-19 -45v-448q0 -27 18.5 -45.5t45.5 -18.5h896q27 0 45.5 18.5t18.5 45.5v448q0 27 -18.5 45.5t-45.5 18.5zM355 163h-19h-19v130h-143v-129h-19h-19v275h19h19v-113h143v113h19h19v-276zM631 196q-37 -40 -98 -40q-60 1 -97 40
q-37 40 -37 105t37 105.5t97 40.5q20 0 37.5 -4.5t32.5 -13.5t28 -23q18 -20 27.5 -46t9.5 -59q0 -65 -37 -105zM912 423v-17h-93v-243h-19h-19v243h-93v17v16h224v-16zM533 414q-43 0 -69 -31q-7 -8 -12 -17t-8 -19t-5 -21.5t-2 -24.5q0 -50 27 -81q13 -16 30.5 -23.5
t38.5 -7.5q43 0 69.5 31t26.5 81q0 9 -0.5 16.5t-2 15t-4 14.5t-5 13t-6.5 11.5t-8 11.5q-27 31 -70 31z" />
    <glyph glyph-name="uniE60B" unicode="&#xe60b;" 
d="M672 300l-320 -224v448z" />
    <glyph glyph-name="uniE60C" unicode="&#xe60c;" 
d="M512 162l249 268h-498z" />
    <glyph glyph-name="uniE60D" unicode="&#xe60d;" 
d="M512 492l-256 -321h513z" />
    <glyph glyph-name="uniE60E" unicode="&#xe60e;" 
d="M785 154l43 -361l-316 154l-316 -154l43 361l-239 266l343 68l169 319l169 -319l343 -68zM612 396l-100 189l-100 -189l-203 -41l141 -157l-25 -214l187 91l188 -91l-26 214l142 157z" />
    <glyph glyph-name="uniE60F" unicode="&#xe60f;" 
d="M511 783l156 -316l349 -50l-253 -246l60 -348l-312 164l-312 -164l59 348l-252 246l349 50z" />
    <glyph glyph-name="uniE610" unicode="&#xe610;" 
d="M381 298q0 26 10.5 49.5t27.5 41t40.5 27.5t49.5 10q35 0 64.5 -17t46.5 -46.5t17 -63.5q0 -54 -37.5 -91.5t-90.5 -37.5t-90.5 37.5t-37.5 90.5z" />
    <glyph glyph-name="uniE611" unicode="&#xe611;" 
d="M126 -147v896l768 -444z" />
    <glyph glyph-name="uniE612" unicode="&#xe612;" 
d="M513 803q-103 0 -196 -40t-160.5 -107t-107 -160.5t-39.5 -195.5t39.5 -195.5t107 -160.5t160.5 -107t195.5 -40t195.5 40t160.5 107t107 160.5t39.5 195.5q0 186 -120 327q-115 134 -289 167q-46 9 -93 9zM513 -131q-88 0 -168 34t-137.5 92t-91.5 137.5t-34 167.5
q0 117 57.5 216.5t157 157t216 57.5t216 -57.5t157.5 -157t58 -216.5q0 -165 -111 -288q-108 -119 -265 -140q-28 -3 -55 -3zM421 69q-5 0 -8 2q-3 1 -4.5 2.5t-3 3.5t-2 4.5t-0.5 5.5v410q0 11 9 16q5 3 10 2.5t9 -3.5l287 -200q8 -5 8 -14q0 -5 -2 -8.5t-5 -6.5l-288 -211
z" />
    <glyph glyph-name="uniE613" unicode="&#xe613;" 
d="M256 428l256 -321l257 321h-513z" />
    <glyph glyph-name="uniE614" unicode="&#xe614;" 
d="M517 812q-190 1 -334 -121q-138 -115 -172 -290q-10 -48 -10 -97q-1 -104 38.5 -199t107.5 -164t162.5 -110.5t198.5 -42t199 39t164 107.5t110.5 162.5t42.5 198.5t-39 199t-108 164t-162 110.5t-198 42.5zM508.5 -162.5q-94.5 0.5 -179.5 38t-146.5 100t-97.5 148.5
t-35.5 180t38 179.5t100 147t148.5 97t180 35t179.5 -38t147 -100t97.5 -148.5t35 -180t-38.5 -179.5t-99.5 -147t-148 -97t-180.5 -35zM430 57l282 226q8 6 8 15.5t-7 15.5l-279 231q-10 8 -22 2.5t-12 -18.5l-3 -456q0 -13 11.5 -18.5t21.5 2.5z" />
    <glyph glyph-name="uniE615" unicode="&#xe615;" 
d="M512 812q-104 0 -199 -40.5t-163.5 -109t-109 -163.5t-40.5 -199t40.5 -199t109 -163.5t163.5 -109t199 -40.5t199 40.5t163.5 109t109 163.5t40.5 199t-40.5 199t-109 163.5t-163.5 109t-199 40.5zM512 -180q-180 0 -315 119q-130 113 -158 281q-6 40 -7 80
q0 98 38 186.5t102.5 153t153 102.5t186.5 38t186.5 -38t153 -102.5t102.5 -153t38 -186.5q0 -65 -17.5 -127.5t-48.5 -115t-75 -96.5t-96.5 -75t-115 -48.5t-127.5 -17.5zM735 310l-343 197q-3 1 -6 1t-5.5 -1.5t-4 -4t-1.5 -5.5v-394q1 -6 5 -10q6 -3 12 0l343 197
q3 2 4.5 4.5t1.5 5.5q0 2 -1 4t-2 3.5t-3 2.5z" />
    <glyph glyph-name="uniE616" unicode="&#xe616;" 
d="M331 684q-4 3 -8 5t-8.5 3t-9.5 1q-17 0 -29 -12t-12 -29v-704q0 -11 5.5 -20.5t15 -15t20.5 -5.5q16 0 28 11l412 350q16 13 16 33q0 9 -4 17.5t-12 14.5l-414 350v1v0z" />
    <glyph glyph-name="uniE617" unicode="&#xe617;" 
d="M779 763l-463 -463l463 -463q3 -4 4.5 -9t0 -10t-4.5 -9l-14 -14q-3 -3 -7 -4.5t-7.5 -1.5t-7.5 1.5t-6 4.5l-492 491q-5 6 -5 14t5 14l14 14l478 478q5 5 13.5 5t14.5 -5l14 -15q5 -5 5 -13.5t-5 -14.5z" />
    <glyph glyph-name="uniE618" unicode="&#xe618;" 
d="M235 770l42 42l512 -512l-512 -512l-42 42l470 470z" />
    <glyph glyph-name="uniE619" unicode="&#xe619;" 
d="M246 719q0 18 18.5 23.5t43 -3t42.5 -26.5l402 -358q28 -28 28 -67t-28 -67l-402 -377q-17 -17 -42.5 -23t-43.5 1.5t-18 25.5v871z" />
    <glyph glyph-name="uniE61A" unicode="&#xe61a;" 
d="M511 796q-103 0 -197 -40t-162 -108t-108 -162t-40 -197q0 -83 25.5 -160t72.5 -139.5t109 -109.5t139.5 -72.5t160.5 -25.5q103 0 197 40t162 108t108 162t40 197t-40 197t-108 162t-162 108t-197 40zM511 -183q-96 0 -183.5 37.5t-151 100.5t-100.5 150.5t-37 183.5
t37 183.5t100.5 151t151 100.5t183.5 37t183.5 -37t150.5 -100.5t100.5 -151t37.5 -183.5q0 -196 -138 -334t-334 -138zM374 289q0 -38 18.5 -69.5t50 -50t68.5 -18.5q28 0 53.5 11t44 29.5t29.5 44t11 53.5q0 57 -40.5 97t-97.5 40t-97 -40t-40 -97z" />
    <glyph glyph-name="uniE61B" unicode="&#xe61b;" 
d="M512 812q-133 0 -226.5 -93.5t-93.5 -226.5q0 -86 33 -190t80 -191t94 -162t80 -118l33 -43q13 16 34.5 45t77 114t97.5 166t76.5 187t34.5 192q0 133 -93.5 226.5t-226.5 93.5zM512 315q-72 0 -122.5 51t-50.5 122.5t50.5 122t122.5 50.5t122.5 -50.5t50.5 -122
t-50.5 -122.5t-122.5 -51z" />
    <glyph glyph-name="uniE61C" unicode="&#xe61c;" 
d="M512 747q-73 0 -141.5 -22.5t-123.5 -64t-96.5 -96.5t-64 -123.5t-22.5 -141.5q0 -91 35.5 -174t95.5 -143t143 -95.5t174 -35.5t174 35.5t143 95.5t95.5 143t35.5 174t-35.5 174t-95.5 143t-143 95.5t-174 35.5zM512.5 -60q-97.5 0 -180 48t-130.5 130.5t-48 180t48 180
t130.5 130.5t180 48t180 -48t130.5 -130.5t48 -180t-48 -180t-130.5 -130.5t-180 -48zM512 433q-56 0 -95 -39t-39 -95t39 -95.5t95 -39.5q28 0 52.5 11t42.5 29t29 42.5t11 52.5q0 56 -39.5 95t-95.5 39z" />
    <glyph glyph-name="uniE61D" unicode="&#xe61d;" 
d="M192 812v-1024l320 320l320 -320v1024h-640z" />
    <glyph glyph-name="uniE61E" unicode="&#xe61e;" 
d="M387 508h88v-88h-88v88zM475 420h88v-88h-88v88zM563 332h88v-88h-88v88zM475 244h88v-88h-88v88zM387 156h88v-88h-88v88z" />
    <glyph glyph-name="uniE61F" unicode="&#xe61f;" 
d="M788 -212h-670q-32 0 -59 16t-43 43t-16 59v394q0 23 4 42t12 31t16.5 20.5t19.5 13t20 6.5t18 2h4h10h14q7 0 16 -0.5t16 -0.5h24l-1 -78q-4 0 -8.5 -0.5t-16.5 0.5h-7h-11h-10h-11h-8h-7l-2 1q-2 -1 -3 -1t-2.5 -0.5t-2.5 -2t-2 -4t-1.5 -6.5t-1 -10t-0.5 -13v-394
q0 -16 11.5 -27.5t27.5 -11.5h670q21 0 45 71l112 367q-1 10 -6.5 18t-14 12.5t-18.5 4.5h-197q-17 0 -28.5 11.5t-11.5 27.5v295q0 12 -4.5 23t-12.5 19t-18.5 12.5t-22.5 4.5q-25 0 -42 -17t-17 -42v-19h-80v19q0 57 40.5 97.5t97.5 40.5q37 0 69 -18.5t50.5 -50
t18.5 -69.5v-255h158q49 0 83.5 -35t34.5 -84q0 -6 -2 -11l-114 -374q-6 -17 -10 -28.5t-15 -32t-22.5 -33.5t-31 -23t-41.5 -10zM157 336v78q57 0 104.5 11.5t79 29t56 41.5t38.5 47t22.5 46.5t11.5 39t3 26.5h80q0 -27 -10 -63.5t-38.5 -82.5t-70.5 -84t-114.5 -63.5
t-161.5 -25.5zM197 379h79v-551h-79v551z" />
    <glyph glyph-name="uniE620" unicode="&#xe620;" 
d="M210 428l303 -303l303 303l-54 55l-249 -249l-249 249z" />
    <glyph glyph-name="uniE621" unicode="&#xe621;" 
d="M928 608h-800q-13 0 -22.5 -9.5t-9.5 -22.5v-32q0 -13 9.5 -22.5t22.5 -9.5h800q13 0 22.5 9.5t9.5 22.5v32q0 13 -9.5 22.5t-22.5 9.5zM928 320h-800q-13 0 -22.5 -9.5t-9.5 -22.5v-32q0 -13 9.5 -22.5t22.5 -9.5h800q13 0 22.5 9.5t9.5 22.5v32q0 13 -9.5 22.5
t-22.5 9.5zM928 32h-800q-13 0 -22.5 -9.5t-9.5 -22.5v-32q0 -13 9.5 -22.5t22.5 -9.5h800q13 0 22.5 9.5t9.5 22.5v32q0 13 -9.5 22.5t-22.5 9.5z" />
    <glyph glyph-name="uniE622" unicode="&#xe622;" 
d="M41 655v-117h940v117h-940zM41 244h940v118h-940v-118zM41 -49h940v117h-940v-117z" />
    <glyph glyph-name="uniE623" unicode="&#xe623;" 
d="M159 519h706q14 0 25 6.5t17.5 18t6.5 24.5q0 20 -14 34.5t-35 14.5h-706q-7 0 -13.5 -2t-11.5 -5t-9.5 -7.5t-8 -10t-5 -11.5t-1.5 -13q0 -13 6.5 -24.5t17.5 -18t25 -6.5zM159 251h706q10 0 19 4t16 10.5t10.5 15.5t3.5 19q0 13 -6.5 24.5t-17.5 18t-25 6.5h-706
q-21 0 -35 -14.5t-14 -34.5t14 -34.5t35 -14.5zM159 -17h706q14 0 25 6.5t17.5 18t6.5 24.5t-6.5 24.5t-17.5 18t-25 6.5h-706q-21 0 -35 -14.5t-14 -34.5t14 -34.5t35 -14.5z" />
    <glyph glyph-name="uniE624" unicode="&#xe624;" 
d="M938 319q1 -5 -1 -11l-73 -322q-1 -6 -5 -11q-4 -8 -9 -15t-11.5 -13t-14.5 -11q-25 -16 -54 -16l-469 1q-3 -1 -5 -1t-5 1h-125l-5 -1q-9 0 -17 4.5t-12.5 12.5t-4.5 17v406q0 14 10 24t24 10q1 0 2 -0.5t2 -0.5l112 1q78 6 132 62t56 135v8q0 20 7.5 38.5t21 31.5
t31.5 21t38 8q35 0 61.5 -21.5t34.5 -54.5q3 -13 5 -25.5t3 -25.5t1 -27q0 -60 -20 -116l189 -1h5q53 -2 81 -47q18 -28 15 -61zM195 -12h67v338h-67v-338zM866 344q-10 17 -29 16v0h-239q-7 0 -13 2.5t-10.5 7t-7 11t-2.5 13.5q0 8 3 15q20 38 29 82q1 2 1.5 6t1.5 17.5
t1 29.5q0 12 -1 25.5t-2 20.5l-2 7v1q0 9 -4 16t-11.5 11.5t-15.5 4.5q-14 0 -23 -9.5t-9 -22.5v-1v-1v-3q0 -2 -1 -8v-12q-1 -6 -2 -14.5t-2 -16.5q-3 -15 -8 -31q-22 -65 -72.5 -112.5t-117.5 -64.5v-346h440h5q7 1 12 4q9 6 13 15l70 310q1 4 1 7v6q0 4 -1.5 7.5
t-3.5 6.5z" />
    <glyph glyph-name="uniE625" unicode="&#xe625;" 
d="M508 672q-76 0 -145 -29.5t-119 -79.5t-79.5 -119t-29.5 -145q0 -102 50 -188t136 -136t187 -50q76 0 145 29.5t119 79.5t79.5 119.5t29.5 145.5t-29.5 145t-79.5 119t-119 79.5t-145 29.5zM508 -7q-127 0 -216 89.5t-89 216.5q0 83 40.5 153t111 111t153.5 41
q127 0 216 -89.5t89 -215.5q0 -128 -90 -217q-90 -88 -215 -89zM406 146l289 170l-289 135v-305z" />
    <glyph glyph-name="uniE626" unicode="&#xe626;" horiz-adv-x="1000" 
d="M662 566v-499l-299 250zM662 566z" />
    <glyph glyph-name="uniE627" unicode="&#xe627;" 
d="M935 535h-846q-37 0 -63 -25.5t-26 -60.5v-298q0 -35 26 -60.5t63 -25.5h846q37 0 63 25.5t26 60.5v298q0 35 -26 60.5t-63 25.5zM1001 151q0 -17 -9 -32t-24 -23.5t-33 -8.5h-846q-27 0 -46.5 19t-19.5 45v298q0 17 9 32t24 23.5t33 8.5h846q27 0 46.5 -19t19.5 -45
v-298zM269 192v109q0 37 -4 49q-5 12 -15 19q-5 4 -11.5 5.5t-13.5 1.5q-18 0 -32 -9q-14 -10 -19 -26q-3 -7 -4 -20.5t-1 -32.5v-96h-50v213h45v-44l11 13q28 36 72 36q19 0 35 -6q15 -7 23 -17t11 -23q3 -14 3 -38v-134h-50zM461 187q-57 0 -85 36q-22 29 -22 74
q0 53 29 83t72 30q49 0 78 -31q27 -30 27 -92h-154v-6q0 -14 4 -25.5t12 -19.5q16 -16 40 -16q16 0 28 9q5 3 8.5 9t6.5 13l49 -8q-11 -26 -32 -40q-24 -16 -61 -16zM459 376q-8 0 -14.5 -1.5t-12.5 -5t-11 -9.5q-14 -16 -14 -42v-6h104l-1 6q0 28 -15 43q-5 5 -10.5 8.5
t-12 5t-13.5 1.5zM782 192l-44 161l-44 -161h-51l-70 213h47l49 -163l44 163h50l43 -163l49 163h48l-70 -213h-51z" />
    <glyph glyph-name="uniE628" unicode="&#xe628;" 
d="M736 -149q-91 0 -174 35.5t-143 95.5t-95.5 143.5t-35.5 174.5q0 73 22.5 141.5t64 124t96.5 97t123.5 64t141.5 22.5v-898z" />
    <glyph glyph-name="uniE629" unicode="&#xe629;" 
d="M288 749q91 0 174 -35.5t143 -95.5t95.5 -143.5t35.5 -174.5t-35.5 -174.5t-95.5 -143.5t-143 -95.5t-174 -35.5v898z" />
    <glyph glyph-name="uniE62A" unicode="&#xe62a;" 
d="M278 817q-7 -7 -10.5 -15.5t-3.5 -17.5t3.5 -18t10.5 -16l368 -367l-365 -365q-14 -14 -14 -33.5t14 -33.5t33.5 -14t33.5 14l398 398q9 8 12 20t0.5 23.5t-10.5 21.5q-2 3 -5 5l-398 398q-7 7 -15.5 10.5t-17.5 3.5t-18 -3.5t-16 -10.5z" />
    <glyph glyph-name="uniE62B" unicode="&#xe62b;" 
d="M736 709l37 36v77l-67 10l-48 -40l-396 -375q-8 -9 -8 -20.5t8 -19.5l338 -393l48 -47h67l22 71l-42 42l-291 347zM736 709z" />
    <glyph glyph-name="uniE62C" unicode="&#xe62c;" 
d="M736 296q-7 0 -13 -3.5t-9 -9.5t-3 -13q0 -82 -58.5 -140.5t-140.5 -58.5t-140.5 58.5t-58.5 140.5t58.5 140.5t140.5 58.5h55l-54 -54q-8 -8 -8 -18.5t8 -18.5q8 -7 18 -7q11 0 18 7l98 98q7 8 7 18.5t-7 17.5l-98 98q-5 5 -11.5 6.5t-13 0t-11.5 -6.5q-8 -8 -8 -18.5
t8 -17.5l54 -54h-55q-103 0 -176.5 -73.5t-73.5 -176.5q0 -68 33.5 -125.5t91 -91t125.5 -33.5q103 0 176.5 73.5t73.5 176.5q0 4 -1.5 8t-4 7t-5.5 5.5t-7 4t-8 1.5z" />
    <glyph glyph-name="uniE62D" unicode="&#xe62d;" 
d="M761 456q1 58 -12.5 113t-31.5 94t-48 77t-50 59t-50 44t-36.5 26.5t-20.5 12.5v0v0q-7 -4 -19 -11t-37 -26.5t-49 -42.5t-51.5 -59.5t-47.5 -77t-33 -95.5t-12 -114q-99 -68 -90 -180q5 -64 54.5 -111t82.5 -44q33 4 25 29l11 50q1 -2 3 -4.5t8 -11t11.5 -16t13 -16.5
t13.5 -15.5t11.5 -11t8.5 -4.5h97v0v0h97q8 0 25.5 20t30.5 39t13 20l11 -50q-1 -1 -1 -2t-0.5 -3.5t-0.5 -5t1.5 -5.5t4.5 -5.5t8.5 -4.5t12.5 -3q33 -3 82.5 44t54.5 111q2 27 -2.5 51.5t-12.5 43t-21 35t-26 28t-28 22.5zM512 460q-3 0 -7.5 0.5t-14.5 2.5t-19 6t-20 12
t-19.5 18.5t-15 27.5t-9.5 37q1 28 11.5 48.5t25.5 31t28.5 17t26.5 9.5l13 2q2 0 7.5 -0.5t15.5 -3.5t20 -7.5t21 -13t19.5 -19t14.5 -27.5t7 -37q-3 -28 -15 -49t-25 -31t-28.5 -16t-23.5 -7t-13 -1zM512 460zM458 -34q0 -8 -7 -15t-15 -7t-14.5 7t-6.5 15v104q0 8 6.5 15
t14.5 7t15 -7t7 -15v-104zM458 -34zM537 -88q0 -8 -6.5 -15t-14.5 -7q-6 0 -11 3t-8 8t-3 11v155q0 3 1 6t3.5 6t5 5t5.5 3t7 1q8 0 14.5 -6.5t6.5 -14.5v-155zM537 -88zM609 -9q0 -8 -6.5 -15t-14.5 -7t-15 7t-7 15v76q0 4 2 8t5 7t7 4.5t8 1.5q8 0 14.5 -6.5t6.5 -14.5
v-76zM609 -9z" />
    <glyph glyph-name="uniE62E" unicode="&#xe62e;" 
d="M602 399h-513q-8 0 -14.5 -4t-10.5 -10.5t-4 -14.5v-325q0 -12 8.5 -20.5t20.5 -8.5h513q12 0 20 8.5t8 20.5v325q0 6 -2 11t-6 9t-9 6.5t-11 2.5zM574 73h-457v269h457v-269zM957 340.5q-11 8.5 -25 5.5l-228 -57q-9 -2 -15.5 -10t-6.5 -18v-109q0 -7 3 -12.5t8 -9.5
t11 -6l229 -55h6q10 0 18 6q3 2 5.5 5.5t4 8t1.5 8.5v221q0 14 -11 22.5zM911 133l-172 41v65l172 43v-149zM183 458q45 0 76.5 30.5t31.5 74t-31.5 74.5t-76.5 31q-18 0 -34.5 -5t-29.5 -15t-23.5 -23t-16 -29t-5.5 -33q0 -29 15 -53t40 -38t54 -14zM183 611q21 0 36.5 -14
t15.5 -34q0 -7 -2 -13t-5.5 -11.5t-8 -10t-10.5 -7.5t-12.5 -5t-13.5 -2q-14 0 -26 6.5t-19 18t-7 24.5q0 10 4 19t11 15.5t16.5 10t20.5 3.5zM481 754q-42 0 -77 -20t-55.5 -54t-20.5 -74q0 -61 44.5 -104.5t108 -43.5t108 43.5t44.5 104.5t-44.5 104.5t-107.5 43.5z
M481 514q-20 0 -38 7.5t-30.5 19.5t-20.5 29t-8 36q0 37 28.5 64t68.5 27q26 0 48 -12.5t35 -33.5t13 -45q0 -51 -45 -78q-24 -13 -51 -14z" />
    <glyph glyph-name="uniE62F" unicode="&#xe62f;" 
d="M555 373h-264q-35 0 -55.5 -26.5t-15.5 -59t35 -49.5q24 -14 49.5 -8.5t40 24.5t18.5 43t-15 48h151q-14 -18 -15.5 -38.5t7.5 -37t24.5 -28.5t35.5 -13t40 10q23 12 31 35.5t2.5 45t-24.5 38t-45 16.5zM335 300q0 -27 -22 -38t-44.5 0t-22.5 38t22.5 38.5t44.5 0
t22 -38.5zM555 256q-9 0 -16.5 3t-12.5 8t-8.5 12t-4.5 14t0 14.5t4.5 14t8.5 12t12.5 8.5t16.5 3q27 0 38.5 -22.5t0 -44.5t-38.5 -22zM950 464l-213 -85v81q0 9 -3.5 18t-10 15t-15 10t-17.5 4h-24v119h85q2 -9 7 -16.5t12 -13t16 -9t19 -3.5h115q12 0 21.5 4t16 10.5
t10.5 15t5 17.5t0 18.5t-5 18t-10.5 15t-16 10t-21.5 3.5h-115q-20 0 -34.5 -11.5t-19.5 -30.5h-113v-147h-123v105h-436v-28h408v-77h-333q-9 0 -17.5 -4t-15 -10t-10 -15t-3.5 -18v-308q0 -20 13.5 -33.5t32.5 -13.5h536q12 0 23 6.5t17 17t6 23.5v81l213 -86q7 -2 13 2
t6 11v291q0 5 -3 8.5t-7 5t-9 -0.5zM806 668h115q13 0 20 -8.5t7 -19t-7 -19.5t-20 -9h-115q-11 0 -18 6t-8.5 14t0 16.5t8.5 14t18 5.5zM709 152q0 -5 -2.5 -9.5t-6.5 -7t-9 -2.5h-536q-3 0 -5.5 1t-5 2.5t-4 4t-2.5 5.5t-1 6v308q0 2 0.5 4.5t2.5 4.5l2 4q2 2 4 3t4.5 2
t4.5 1h536q7 0 12.5 -5.5t5.5 -13.5v-308zM941 181l-204 82v86l204 82v-250z" />
    <glyph glyph-name="uniE630" unicode="&#xe630;" 
d="M512 525q-93 0 -159 -66t-66 -159t66 -159t159 -66q61 0 113 30t82 82t30 113q0 93 -66 159t-159 66z" />
    <glyph glyph-name="uniE631" unicode="&#xe631;" 
d="M82 92q-29 0 -50.5 -21t-21.5 -49t22 -50t50 -22t49 21.5t21 50.5q0 28 -21 49t-49 21zM82 436q-29 0 -50.5 -21t-21.5 -49t21.5 -49t50.5 -21q28 0 49 21t21 49t-21 49t-49 21zM338 646h606q27 0 46.5 18.5t19.5 45.5t-19.5 46.5t-46.5 19.5h-606q-27 0 -46.5 -19.5
t-19.5 -46.5t19.5 -45.5t46.5 -18.5zM82 782q-28 0 -50 -22t-22 -50t21.5 -49t50.5 -21q28 0 49 21t21 49q0 29 -21 50.5t-49 21.5zM944 432h-606q-27 0 -46.5 -19.5t-19.5 -46.5t19.5 -46.5t46.5 -19.5h606q27 0 46.5 19.5t19.5 46.5t-19.5 46.5t-46.5 19.5zM944 88h-606
q-27 0 -46.5 -19.5t-19.5 -46.5t19.5 -46.5t46.5 -19.5h606q27 0 46.5 19.5t19.5 46.5t-19.5 46.5t-46.5 19.5z" />
    <glyph glyph-name="uniE632" unicode="&#xe632;" 
d="M841 384q0 -89 -44 -165t-120 -120t-165 -44q-34 0 -66.5 6.5t-61.5 19t-56 30.5t-49 40t-40 49t-30.5 56t-19 61.5t-6.5 66.5q0 131 90.5 226t220.5 102v-99q0 -2 0.5 -3.5t1.5 -3t2 -1.5q3 -2 5 -2l5 2l237 137q2 1 3.5 3t1.5 4.5t-1.5 4.5t-3.5 4l-237 137q-5 2 -10 0
q-1 -1 -2 -2.5t-1.5 -3t-0.5 -2.5v-102q-40 -1 -78 -10.5t-72 -25.5t-65 -38t-57 -49t-47 -59t-35.5 -66.5t-22 -73.5t-7.5 -79q0 -82 32 -156.5t85.5 -128t128 -85.5t156.5 -32q109 0 201.5 54t146.5 146.5t54 201.5h-73z" />
    <glyph glyph-name="uniE633" unicode="&#xe633;" 
d="M865 299q0 4 -2 8t-5 7l-34 34q-7 7 -15.5 7t-15.5 -7l-266 -266l-266 266q-2 2 -4.5 3.5t-5 2.5t-5.5 1q-9 0 -16 -7l-34 -34q-2 -2 -3.5 -4.5t-2 -5.5t-0.5 -5q0 -9 6 -16l316 -315q6 -7 15 -7t16 7l315 315q3 3 5 7.5t2 8.5zM865 559q0 4 -2 8t-5 7l-34 34q-7 7 -16 7
q-4 0 -8 -2t-7 -5l-266 -266l-266 266q-3 3 -7 5t-8 2q-5 0 -9 -2t-7 -5l-34 -34q-6 -7 -6 -15.5t6 -15.5l316 -315q6 -7 15 -7q4 0 8.5 2t7.5 5l315 315q7 7 7 16z" />
    <glyph glyph-name="uniE634" unicode="&#xe634;" 
d="M159 373q0 -8 7 -15l34 -34q3 -3 7 -5t9 -2q8 0 15 7l266 266l266 -266q6 -7 15 -7t16 7l34 34q3 3 4.5 7t1.5 8t-1.5 8.5t-4.5 7.5l-316 315q-1 2 -3 3l-4 2q-2 1 -4 1.5t-4 0.5t-4 -0.5t-4 -1.5l-4 -2q-2 -1 -4 -3l-315 -315q-1 -1 -2 -3l-2 -2q-1 -2 -1.5 -4t-1 -3.5
t-0.5 -3.5zM159 113q0 -1 0.5 -3t1 -3.5t1.5 -2.5l2 -4l2 -2l34 -34q3 -3 7.5 -5t8.5 -2q8 0 15 7l266 266l266 -266q7 -7 15.5 -7t15.5 7l34 34q6 7 6 15q0 2 -0.5 4.5t-1 4.5t-2 4t-2.5 3l-316 315q-1 2 -3 3l-4 2q-2 1 -4 1.5t-4 0.5q-9 0 -16 -7l-315 -315q-7 -7 -7 -16
z" />
    <glyph glyph-name="uniE635" unicode="&#xe635;" 
d="M92 613zM32 613q0 25 17.5 42.5t42.5 17.5q17 0 31 -8t22 -22t8 -30q0 -25 -18 -43t-43 -18q-10 0 -19 3t-16.5 8.5t-13 13t-8.5 17t-3 19.5zM85 312zM24 312q0 10 3 19t8.5 16.5t13 13.5t17 9t19.5 3q16 0 30 -8.5t22 -22.5t8 -30.5t-8 -30.5t-22 -22t-30 -8
q-37 0 -54 33q-7 14 -7 28zM85 10zM24 10q0 25 18 42.5t43 17.5q12 0 23.5 -4.5t19.5 -12.5t12.5 -19.5t4.5 -23.5q0 -17 -8 -31t-22 -22t-30 -8q-37 0 -54 33q-7 14 -7 28zM995 615q0 -15 -7 -28.5t-19 -21t-27 -7.5h-629q-23 0 -38.5 17t-15.5 40q0 24 15.5 41t38.5 17
h629q22 0 37.5 -17t15.5 -41zM995 315q0 -24 -15.5 -41t-37.5 -17h-629q-23 0 -38.5 17t-15.5 41t15.5 41t38.5 17h629q9 0 17 -3t14.5 -8.5t11.5 -12.5t7.5 -16t2.5 -18zM995 13q0 -24 -15.5 -41t-37.5 -17h-629q-23 0 -38.5 17t-15.5 41q0 15 7.5 28.5t19.5 21t27 7.5h629
q22 0 37.5 -16.5t15.5 -40.5z" />
  </font>
</defs>
</svg>
